<?xml version="1.0" encoding="iso-8859-1"?>
<!-- Generator: Adobe Illustrator 19.1.0, SVG Export Plug-In . SVG Version: 6.00 Build 0)  -->
<svg version="1.1" id="Capa_1" xmlns="http://www.w3.org/2000/svg" xmlns:xlink="http://www.w3.org/1999/xlink" x="0px" y="0px"
	 viewBox="0 0 512 512" style="enable-background:new 0 0 512 512;" xml:space="preserve">
<g>
	<g>
		<g>
			<path style="fill:#5C546A;" d="M407.672,501.742l-40-136c-1.242-4.234-5.672-6.688-9.93-5.414
				c-4.234,1.242-6.664,5.688-5.414,9.93L363.429,408H148.571l11.101-37.742c1.25-4.242-1.18-8.688-5.414-9.93
				c-4.281-1.281-8.687,1.18-9.93,5.414l-40,136c-1.25,4.242,1.18,8.688,5.414,9.93C110.5,511.898,111.258,512,112,512
				c3.461,0,6.648-2.258,7.672-5.742L143.865,424h224.269l24.193,82.258c1.023,3.484,4.211,5.742,7.672,5.742
				c0.742,0,1.508-0.102,2.258-0.328C406.492,510.43,408.922,505.984,407.672,501.742z"/>
		</g>
		<g>
			<path style="fill:#5C546A;" d="M256,48c4.422,0,8-3.578,8-8V8c0-4.422-3.578-8-8-8s-8,3.578-8,8v32C248,44.422,251.578,48,256,48
				z"/>
		</g>
	</g>
	<g>
		<path style="fill:#FFFFFF;" d="M488,32H24c-4.422,0-8,3.578-8,8v312c0,13.234,10.766,24,24,24h432c13.234,0,24-10.766,24-24V40
			C496,35.578,492.422,32,488,32z"/>
	</g>
	<g>
		<polygon style="fill:#FFE1B2;" points="80,368 432,368 432,112 264,264 192,208 80,304.003 		"/>
	</g>
	<g>
		<polygon style="fill:#FDC88E;" points="264,360 264,272 192,208 192,360 		"/>
	</g>
	<g>
		<g>
			<path style="fill:#FF4F19;" d="M88,312c-2.047,0-4.094-0.781-5.656-2.344c-3.125-3.125-3.125-8.188,0-11.312l92.687-92.687
				c9.359-9.359,24.578-9.359,33.937,0l49.375,49.375c3.125,3.125,8.188,3.125,11.312,0l148.687-148.687
				c3.125-3.125,8.188-3.125,11.312,0c3.125,3.125,3.125,8.187,0,11.312L280.969,266.344c-9.359,9.359-24.578,9.359-33.938,0
				l-49.375-49.375c-3.125-3.125-8.188-3.125-11.312,0l-92.687,92.687C92.094,311.219,90.047,312,88,312z"/>
		</g>
	</g>
	<g>
		<g>
			<path style="fill:#FF4F19;" d="M424,192c-4.422,0-8-3.578-8-8v-64h-64c-4.422,0-8-3.578-8-8c0-4.422,3.578-8,8-8h72
				c4.422,0,8,3.578,8,8v72C432,188.422,428.422,192,424,192z"/>
		</g>
	</g>
	<g>
		<path style="fill:#8B8996;" d="M480,48v304c0,4.411-3.589,8-8,8H40c-4.411,0-8-3.589-8-8V48H480 M488,32H24c-4.422,0-8,3.578-8,8
			v312c0,13.234,10.766,24,24,24h432c13.234,0,24-10.766,24-24V40C496,35.578,492.422,32,488,32L488,32z"/>
	</g>
	<g>
		<path style="fill:#9F6459;" d="M8,56h496c4.418,0,8-3.582,8-8V32c0-4.418-3.582-8-8-8H8c-4.418,0-8,3.582-8,8v16
			C0,52.418,3.582,56,8,56z"/>
	</g>
</g>
<g>
</g>
<g>
</g>
<g>
</g>
<g>
</g>
<g>
</g>
<g>
</g>
<g>
</g>
<g>
</g>
<g>
</g>
<g>
</g>
<g>
</g>
<g>
</g>
<g>
</g>
<g>
</g>
<g>
</g>
</svg>
