<?xml version="1.0" encoding="iso-8859-1"?>
<!-- Generator: Adobe Illustrator 19.1.0, SVG Export Plug-In . SVG Version: 6.00 Build 0)  -->
<svg version="1.1" id="Capa_1" xmlns="http://www.w3.org/2000/svg" xmlns:xlink="http://www.w3.org/1999/xlink" x="0px" y="0px"
	 viewBox="0 0 512 512" style="enable-background:new 0 0 512 512;" xml:space="preserve">
<g>
	<g>
		<path style="fill:#53DCFF;" d="M453.758,298.398c-1.367,12.328-11.609,21.672-23.836,21.758H327.18
			c-12.242-0.055-22.508-9.414-23.875-21.75c-2.258-20.469-4.516-38.586-6.758-56.641c-1.133-9.062-2.258-18.109-3.375-27.43
			c-1.047-8.695,5.156-16.687,13.82-17.828c23.742-3.109,47.633-4.664,71.539-4.664c23.898,0,47.805,1.555,71.531,4.664
			c8.672,1.141,14.875,9.133,13.82,17.828c-1.109,9.242-2.227,18.219-3.344,27.211C458.281,259.68,456.024,277.859,453.758,298.398z
			"/>
	</g>
	<g>
		<path style="fill:#B3F4FF;" d="M364.963,192.064c-17.445,0.43-34.865,1.698-52.215,3.785l123.35,123.35
			c9.334-2.589,16.533-10.635,17.66-20.801c0.596-5.405,1.192-10.632,1.787-15.752L364.963,192.064z"/>
	</g>
	<g>
		<path style="fill:#9F6459;" d="M40,232.156L5.029,218.168C1.992,216.953,0,214.011,0,210.74v-10.584c0-4.418,3.582-8,8-8h40
			L40,232.156z"/>
	</g>
	<g>
		<path style="fill:#9F6459;" d="M472,232.156l34.971-13.988c3.037-1.215,5.029-4.157,5.029-7.428v-10.584c0-4.418-3.582-8-8-8h-40
			L472,232.156z"/>
	</g>
	<g>
		<path style="fill:#53DCFF;" d="M208.703,298.398c-1.367,12.328-11.609,21.672-23.836,21.758H82.125
			c-12.242-0.055-22.508-9.414-23.875-21.75c-2.258-20.469-4.516-38.586-6.758-56.641c-1.133-9.062-2.258-18.109-3.375-27.43
			c-1.047-8.695,5.156-16.687,13.82-17.828c23.742-3.109,47.633-4.664,71.539-4.664c23.898,0,47.805,1.555,71.531,4.664
			c8.672,1.141,14.875,9.133,13.82,17.828c-1.109,9.242-2.227,18.219-3.344,27.211C213.226,259.68,210.969,277.859,208.703,298.398z
			"/>
	</g>
	<g>
		<path style="fill:#5C546A;" d="M452.14,180.648c-48.844-6.406-98.383-6.406-147.227,0c-14.073,1.846-24.738,12.759-27.19,26.067
			c-6.325-4.107-13.768-6.56-21.724-6.56c-7.958,0-15.4,2.452-21.725,6.56c-2.454-13.311-13.118-24.222-27.189-26.067
			c-48.844-6.406-98.383-6.406-147.226,0c-17.32,2.273-29.719,18.242-27.633,35.594c1.125,9.352,2.258,18.414,3.383,27.492
			c2.242,17.992,4.484,36.039,6.734,56.43c2.266,20.422,19.336,35.891,39.742,35.992h102.805c0.016,0,0.031,0,0.047,0
			c20.352-0.117,37.406-15.594,39.672-36c2.25-20.469,4.508-38.578,6.75-56.641c0.355-2.846,0.707-5.762,1.061-8.613
			c0.098-0.262,0.266-0.478,0.337-0.754c2.727-10.594,12.281-17.992,23.242-17.992c10.945,0,20.5,7.383,23.234,17.953
			c0.066,0.256,0.243,0.441,0.332,0.685c0.358,2.887,0.714,5.841,1.074,8.721c2.242,18.062,4.5,36.172,6.75,56.648
			c2.266,20.422,19.336,35.891,39.75,35.992h102.805c0.016,0,0.031,0,0.047,0c20.352-0.117,37.398-15.594,39.664-36
			c2.25-20.383,4.492-38.43,6.734-56.422c1.125-9.078,2.258-18.141,3.383-27.492C481.859,198.891,469.461,182.922,452.14,180.648z
			 M208.703,298.398c-1.367,12.328-11.609,21.672-23.836,21.758H82.125c-12.242-0.055-22.508-9.414-23.875-21.75
			c-2.258-20.469-4.516-38.586-6.758-56.641c-1.133-9.062-2.258-18.109-3.375-27.43c-1.047-8.695,5.156-16.687,13.82-17.828
			c23.742-3.109,47.633-4.664,71.539-4.664c23.898,0,47.805,1.555,71.531,4.664c8.672,1.141,14.875,9.133,13.82,17.828
			c-1.109,9.242-2.227,18.219-3.344,27.211C213.226,259.68,210.969,277.859,208.703,298.398z M463.883,214.336
			c-1.117,9.32-2.242,18.367-3.375,27.43c-2.242,18.055-4.5,36.172-6.758,56.633c-1.367,12.328-11.609,21.672-23.828,21.758H327.18
			c-12.25-0.055-22.516-9.414-23.883-21.75c-2.266-20.547-4.523-38.727-6.781-56.859c-1.117-8.992-2.234-17.969-3.344-27.219
			c-1.055-8.688,5.148-16.68,13.82-17.82c23.734-3.109,47.633-4.664,71.531-4.664s47.805,1.555,71.539,4.664
			C458.726,197.648,464.929,205.641,463.883,214.336z"/>
	</g>
	<g>
		<path style="fill:#B3F4FF;" d="M119.908,192.064c-17.445,0.43-34.865,1.698-52.215,3.785l123.35,123.35
			c9.334-2.589,16.533-10.635,17.66-20.801c0.596-5.405,1.192-10.632,1.787-15.752L119.908,192.064z"/>
	</g>
	<g>
		<circle style="fill:#FFFFFF;" cx="172" cy="236.156" r="28"/>
	</g>
	<g>
		<circle style="fill:#FFFFFF;" cx="416" cy="240.156" r="24"/>
	</g>
	<g>
		<circle style="fill:#FFFFFF;" cx="420" cy="236.156" r="28"/>
	</g>
</g>
<g>
</g>
<g>
</g>
<g>
</g>
<g>
</g>
<g>
</g>
<g>
</g>
<g>
</g>
<g>
</g>
<g>
</g>
<g>
</g>
<g>
</g>
<g>
</g>
<g>
</g>
<g>
</g>
<g>
</g>
</svg>
