<?xml version="1.0" encoding="iso-8859-1"?>
<!-- Generator: Adobe Illustrator 19.1.0, SVG Export Plug-In . SVG Version: 6.00 Build 0)  -->
<svg version="1.1" id="Capa_1" xmlns="http://www.w3.org/2000/svg" xmlns:xlink="http://www.w3.org/1999/xlink" x="0px" y="0px"
	 viewBox="0 0 511.328 511.328" style="enable-background:new 0 0 511.328 511.328;" xml:space="preserve">
<g>
	<g>
		<path style="fill:#9F6459;" d="M327.305,4.563c-4.086-4.203-10.344-5.578-17.609-3.656c-0.32,0.102-32.687,10.437-43.445,13.523
			c-6.898,1.977-19.031,2.008-25.977,0.023c-10.867-3.094-43.57-13.477-44.297-13.695c-6.844-1.773-13.102-0.406-17.203,3.789
			c-4.086,4.195-5.312,10.5-3.273,17.547l24.555,75.703c1.07,3.297,4.141,5.531,7.609,5.531h96c3.656,0,6.852-2.477,7.75-6.023
			l19.234-75.461C332.609,15.055,331.391,8.75,327.305,4.563z"/>
	</g>
	<g>
		<path style="fill:#7E5C62;" d="M255.664,15.862c-5.518,0.202-11.335-0.25-15.391-1.408c-10.867-3.094-43.57-13.477-44.297-13.695
			c-6.844-1.773-13.102-0.406-17.203,3.789c-4.086,4.195-5.312,10.5-3.273,17.547l24.555,75.703c1.07,3.297,4.141,5.531,7.609,5.531
			h48V15.862z"/>
	</g>
	<g>
		<path style="fill:#9F6459;" d="M352.102,177.188c-21.695-19.336-40.437-36.031-40.437-49.859c0-4.422-3.578-8-8-8h-96
			c-4.422,0-8,3.578-8,8c0,13.828-18.742,30.523-40.437,49.859c-43.711,38.93-103.562,92.258-103.562,190.141
			c0,69.352,52.57,144,168,144h64c115.43,0,168-74.648,168-144C455.664,269.446,395.813,216.118,352.102,177.188z"/>
	</g>
	<g>
		<path style="fill:#7E5C62;" d="M255.664,119.329h-48c-4.422,0-8,3.578-8,8c0,13.828-18.742,30.523-40.437,49.859
			c-43.711,38.93-103.562,92.258-103.562,190.141c0,69.352,52.57,144,168,144h32V119.329z"/>
	</g>
	<g>
		<circle style="fill:#869B55;" cx="255.664" cy="335.327" r="120"/>
	</g>
	<g>
		<path style="fill:#74D24F;" d="M375.664,335.327c0-66.274-53.726-120-120-120v240
			C321.939,455.327,375.664,401.601,375.664,335.327z"/>
	</g>
	<g>
		<path style="fill:#869B55;" d="M319.664,111.327c0,8.8-7.2,16-16,16h-96c-8.8,0-16-7.2-16-16l0,0c0-8.8,7.2-16,16-16h96
			C312.464,95.327,319.664,102.527,319.664,111.327L319.664,111.327z"/>
	</g>
	<g>
		<path style="fill:#FFEFBC;" d="M255.664,323.328c-16.023,0-28-8.445-28-16c0-7.555,11.977-16,28-16s28,8.445,28,16
			c0,6.625,5.375,12,12,12c6.625,0,12-5.375,12-12c0-19.236-16.824-34.862-40-38.932v-5.068c0-6.625-5.375-12-12-12s-12,5.375-12,12
			v5.068c-23.176,4.07-40,19.695-40,38.932c0,22.43,22.844,40,52,40c16.023,0,28,8.445,28,16c0,7.555-11.977,16-28,16
			s-28-8.445-28-16c0-6.625-5.375-12-12-12c-6.625,0-12,5.375-12,12c0,19.236,16.824,34.862,40,38.932v5.068c0,6.625,5.375,12,12,12
			s12-5.375,12-12v-5.068c23.176-4.07,40-19.695,40-38.932C307.664,340.899,284.82,323.328,255.664,323.328z"/>
	</g>
	<g>
		<path style="fill:#74D24F;" d="M303.664,95.327h-48v32h48c8.8,0,16-7.2,16-16C319.664,102.527,312.464,95.327,303.664,95.327z"/>
	</g>
</g>
<g>
</g>
<g>
</g>
<g>
</g>
<g>
</g>
<g>
</g>
<g>
</g>
<g>
</g>
<g>
</g>
<g>
</g>
<g>
</g>
<g>
</g>
<g>
</g>
<g>
</g>
<g>
</g>
<g>
</g>
</svg>
