<?xml version="1.0" encoding="iso-8859-1"?>
<!-- Generator: Adobe Illustrator 19.1.0, SVG Export Plug-In . SVG Version: 6.00 Build 0)  -->
<svg version="1.1" id="Capa_1" xmlns="http://www.w3.org/2000/svg" xmlns:xlink="http://www.w3.org/1999/xlink" x="0px" y="0px"
	 viewBox="0 0 512 512" style="enable-background:new 0 0 512 512;" xml:space="preserve">
<g>
	<g>
		<g>
			<rect x="128" y="80" style="fill:#FFFFFF;" width="256" height="352"/>
		</g>
		<g>
			<rect x="200" y="24" style="fill:#5C546A;" width="88" height="32"/>
		</g>
		<g>
			<rect x="224" y="440" style="fill:#5C546A;" width="64" height="64"/>
		</g>
		<g>
			<path style="fill:#8B8996;" d="M360,0H152c-22.055,0-40,17.945-40,40v432c0,22.055,17.945,40,40,40h208c22.055,0,40-17.945,40-40
				V40C400,17.945,382.055,0,360,0z M240,32h32c4.422,0,8,3.578,8,8s-3.578,8-8,8h-32c-4.422,0-8-3.578-8-8S235.578,32,240,32z
				 M210.32,34.32c2.875-2.883,8.398-2.961,11.359,0c1.438,1.516,2.32,3.516,2.32,5.68c0,2.156-0.883,4.156-2.32,5.68
				C220.156,47.117,218.156,48,216,48c-2.164,0-4.164-0.883-5.68-2.32C208.875,44.156,208,42.156,208,40
				C208,37.836,208.875,35.836,210.32,34.32z M256,496c-13.23,0-24-10.77-24-24c0-13.23,10.77-24,24-24s24,10.77,24,24
				C280,485.23,269.23,496,256,496z M384,432H128V80h256V432z"/>
		</g>
	</g>
	<g>
		<path style="fill:#FF4F19;" d="M232,176L232,176c-13.255,0-24-10.745-24-24V80h48v72C256,165.255,245.255,176,232,176z"/>
	</g>
	<g>
		<path style="fill:#FF4F19;" d="M328,176L328,176c-13.255,0-24-10.745-24-24V80h48v72C352,165.255,341.255,176,328,176z"/>
	</g>
	<g>
		<path style="fill:#E9001E;" d="M184,176L184,176c-13.255,0-24-10.745-24-24V80h48v72C208,165.255,197.255,176,184,176z"/>
	</g>
	<g>
		<path style="fill:#E9001E;" d="M280,176L280,176c-13.255,0-24-10.745-24-24V80h48v72C304,165.255,293.255,176,280,176z"/>
	</g>
	<g>
		<path style="fill:#FF4F19;" d="M128,80v94.53c2.514,0.894,5.18,1.47,8,1.47c13.255,0,24-10.745,24-24V80H128z"/>
	</g>
	<g>
		<path style="fill:#E9001E;" d="M384,80v94.53c-2.514,0.894-5.18,1.47-8,1.47c-13.255,0-24-10.745-24-24V80H384z"/>
	</g>
	<g>
		<g>
			<g>
				<path style="fill:#8B8996;" d="M296,376h-72c-4.422,0-8-3.578-8-8s3.578-8,8-8h72c4.422,0,8,3.578,8,8S300.422,376,296,376z"/>
			</g>
		</g>
		<g>
			<g>
				<path style="fill:#8B8996;" d="M215.992,376c-1.398,0-2.82-0.367-4.109-1.141c-3.789-2.273-5.016-7.188-2.742-10.977l24-40
					c2.273-3.781,7.18-5.023,10.977-2.742c3.789,2.273,5.016,7.188,2.742,10.977l-24,40C221.359,374.617,218.711,376,215.992,376z"
					/>
			</g>
		</g>
		<g>
			<circle style="fill:#5C546A;" cx="303.999" cy="368" r="16"/>
		</g>
		<g>
			<circle style="fill:#5C546A;" cx="215.999" cy="368" r="16"/>
		</g>
		<g>
			<g>
				<path style="fill:#B9BBC1;" d="M296,336h-48.648c-12.438,0-23.844-7.297-29.055-18.594L178.87,240H168c-4.422,0-8-3.578-8-8
					c0-4.422,3.578-8,8-8h10.883c6.227,0,12.283,4.465,12.283,4.465L196.82,240H320c4.422,0,8,3.578,8,8v56
					C328,321.648,313.648,336,296,336z"/>
			</g>
		</g>
		<g>
			<path style="fill:#8B8996;" d="M184,240h-16c-4.418,0-8-3.582-8-8v0c0-4.418,3.582-8,8-8h16c4.418,0,8,3.582,8,8v0
				C192,236.418,188.418,240,184,240z"/>
		</g>
	</g>
</g>
<g>
</g>
<g>
</g>
<g>
</g>
<g>
</g>
<g>
</g>
<g>
</g>
<g>
</g>
<g>
</g>
<g>
</g>
<g>
</g>
<g>
</g>
<g>
</g>
<g>
</g>
<g>
</g>
<g>
</g>
</svg>
