<?xml version="1.0" encoding="iso-8859-1"?>
<!-- Generator: Adobe Illustrator 19.1.0, SVG Export Plug-In . SVG Version: 6.00 Build 0)  -->
<svg version="1.1" id="Capa_1" xmlns="http://www.w3.org/2000/svg" xmlns:xlink="http://www.w3.org/1999/xlink" x="0px" y="0px"
	 viewBox="0 0 512 512" style="enable-background:new 0 0 512 512;" xml:space="preserve">
<g>
	<g>
		<path style="fill:#FFD200;" d="M287.953,71.137c-0.477-4.395-4.391-7.598-8.82-7.09c-4.091,0.444-6.998,3.931-7.007,7.953h-32.251
			c-0.01-4.022-2.917-7.509-7.007-7.953c-4.484-0.516-8.344,2.695-8.82,7.09l-39.172,360.371c-0.789,7.273,1.719,14.406,6.89,19.57
			l58.578,58.578c1.562,1.562,3.609,2.344,5.656,2.344s4.094-0.781,5.656-2.344l58.578-58.578c5.172-5.164,7.68-12.297,6.891-19.57
			L287.953,71.137z"/>
	</g>
	<g>
		<path style="fill:#FF9600;" d="M255.266,72h-15.391c-0.01-4.022-2.917-7.509-7.007-7.953c-4.484-0.516-8.344,2.695-8.82,7.09
			l-39.172,360.371c-0.789,7.273,1.719,14.406,6.89,19.57l58.578,58.578c1.372,1.372,3.131,2.034,4.922,2.201V72z"/>
	</g>
	<g>
		<polygon style="fill:#FF9600;" points="221.344,96 290.656,96 288.047,72 272.125,72 239.874,72 223.953,72 		"/>
	</g>
	<g>
		<polygon style="fill:#E9001E;" points="220.036,108.036 216.114,144.114 305.614,233.614 300.736,188.735 		"/>
	</g>
	<g>
		<polygon style="fill:#E9001E;" points="204.349,252.349 320.248,368.248 315.37,323.37 208.271,216.27 		"/>
	</g>
	<g>
		<path style="fill:#E9001E;" d="M192.584,360.584l109.072,109.072l18.578-18.578c0.485-0.484,0.826-1.063,1.264-1.581
			L196.506,324.505L192.584,360.584z"/>
	</g>
	<g>
		<polygon style="fill:#FF4F19;" points="208.297,216.026 315.337,323.066 310.459,278.188 212.219,179.948 		"/>
	</g>
	<g>
		<path style="fill:#FF4F19;" d="M196.516,324.415l124.712,125.421c4.424-5.043,6.628-11.591,5.897-18.329l-1.918-17.646
			L200.437,288.34L196.516,324.415z"/>
	</g>
	<g>
		<polygon style="fill:#FF4F19;" points="220.062,107.798 300.76,188.955 295.88,144.063 223.982,71.732 		"/>
	</g>
	<g>
		<path style="fill:#FFD200;" d="M272,0h-32c-13.235,0-24,10.766-24,24v32c0,13.234,10.765,24,24,24h32c13.234,0,24-10.766,24-24V24
			C296,10.766,285.234,0,272,0z"/>
	</g>
	<g>
		<path style="fill:#FF4F19;" d="M288.56,73.295C293.125,68.923,296,62.805,296,56V24c0-13.234-10.766-24-24-24h-32
			c-6.805,0-12.923,2.875-17.295,7.439L288.56,73.295z"/>
	</g>
	<g>
		<path style="fill:#E9001E;" d="M239.333,0.067c-10.734,0.301-19.647,7.668-22.383,17.617l61.365,61.365
			c9.949-2.735,17.316-11.648,17.617-22.383L239.333,0.067z"/>
	</g>
</g>
<g>
</g>
<g>
</g>
<g>
</g>
<g>
</g>
<g>
</g>
<g>
</g>
<g>
</g>
<g>
</g>
<g>
</g>
<g>
</g>
<g>
</g>
<g>
</g>
<g>
</g>
<g>
</g>
<g>
</g>
</svg>
